<?xml version="1.0"?>
<svg version="1.1" xmlns="http://www.w3.org/2000/svg" xmlns:xlink="http://www.w3.org/1999/xlink" width="520" height="420">
    <desc iVinci="yes" version="4.6" gridStep="20" showGrid="no" snapToGrid="no" codePlatform="0"/>
    <g id="Layer1" name="Layer 1" opacity="1">
        <g id="Shape1">
            <desc shapeID="1" type="0" basicInfo-basicType="0" basicInfo-roundedRectRadius="12" basicInfo-polygonSides="6" basicInfo-starPoints="5" bounding="rect(-256.399,-152.806,512.799,305.613)" text="" font-familyName="" font-pixelSize="20" font-bold="0" font-underline="0" font-alignment="1" strokeStyle="0" markerStart="0" markerEnd="0" shadowEnabled="0" shadowOffsetX="0" shadowOffsetY="2" shadowBlur="4" shadowOpacity="160" blurEnabled="0" blurRadius="4" transform="matrix(1,0,0,1,260,230.507)" pers-center="0,0" pers-size="0,0" pers-start="0,0" pers-end="0,0" locked="0" mesh="" flag=""/>
            <path id="shapePath1" d="M292.876,383.146 C291.595,383.146 290.356,383.146 289.159,383.146 C287.857,383.188 286.534,383.188 285.211,383.188 C284.392,383.188 283.615,383.188 282.838,383.188 C280.129,383.23 277.776,383.251 275.719,383.293 C278.512,383.293 280.339,383.314 280.822,383.314 C280.906,383.314 280.948,383.314 280.948,383.314 C284.266,383.251 288.193,383.188 292.876,383.146 M261.312,77.7007 C261.312,77.7007 217.759,115.459 185.356,166.216 C179.602,162.205 173.491,158.236 166.981,154.33 C136.321,136.039 114.649,118.462 99.0875,101.431 C82.6655,133.666 71.8505,167.665 71.8505,201.286 C71.8505,211.24 73.1525,221.551 75.6515,232.009 C45.7685,226.36 22.1855,222.874 3.60052,218.653 C12.6725,306.118 62.2325,383.083 208.54,383.083 C210.787,383.083 214.294,383.083 218.599,383.083 C120.34,381.235 86.7605,328.189 80.5235,268.045 C93.5435,271.006 110.029,273.442 130.945,277.39 C129.202,270.082 128.299,262.858 128.299,255.886 C128.299,232.366 135.859,208.552 147.367,185.998 C158.266,197.926 173.428,210.211 194.89,223.042 C199.447,225.751 203.731,228.523 207.742,231.358 C230.422,195.805 260.914,169.387 260.914,169.387 C260.914,169.387 290.923,195.364 313.561,230.434 C317.194,227.935 321.036,225.457 325.111,223.042 C346.552,210.232 361.693,197.947 372.591,186.019 C384.1,208.594 391.639,232.366 391.639,255.886 C391.639,262.942 390.82,270.145 389.203,277.348 C410.056,273.421 426.499,270.985 439.477,268.045 C433.24,328.189 399.661,381.235 301.38,383.083 C304.468,383.083 307.828,383.083 311.461,383.083 C457.768,383.083 507.328,306.118 516.4,218.632 C497.857,222.853 474.379,226.318 444.601,231.946 C446.869,221.656 448.065,211.366 448.065,201.286 C448.065,167.686 437.272,133.708 420.828,101.473 C405.268,118.504 383.638,136.039 353.02,154.33 C347.203,157.816 341.721,161.344 336.514,164.914 C304.174,114.808 261.312,77.7007 261.312,77.7007 Z" style="stroke:none;fill-rule:nonzero;fill:#b4b1df;fill-opacity:1;"/>
        </g>
        <g id="Shape2">
            <desc shapeID="2" type="0" basicInfo-basicType="0" basicInfo-roundedRectRadius="12" basicInfo-polygonSides="6" basicInfo-starPoints="5" bounding="rect(-42.198,-0.117004,84.396,0.234009)" text="" font-familyName="" font-pixelSize="20" font-bold="0" font-underline="0" font-alignment="1" strokeStyle="0" markerStart="0" markerEnd="0" shadowEnabled="0" shadowOffsetX="0" shadowOffsetY="2" shadowBlur="4" shadowOpacity="160" blurEnabled="0" blurRadius="4" transform="matrix(1,0,0,1,259.985,390.407)" pers-center="0,0" pers-size="0,0" pers-start="0,0" pers-end="0,0" locked="0" mesh="" flag=""/>
            <path id="shapePath2" d="M272.251,390.485 C271.783,390.485 271.334,390.485 270.924,390.505 C273.148,390.505 274.591,390.524 274.883,390.524 C274.922,390.524 274.942,390.524 274.961,390.524 C275.312,390.505 275.663,390.505 276.034,390.485 C274.922,390.485 273.655,390.485 272.251,390.485 M302.183,390.29 C299.063,390.31 296.177,390.329 293.525,390.349 C294.559,390.349 295.631,390.349 296.723,390.349 C298.556,390.349 300.389,390.329 302.183,390.29 M217.787,390.29 C219.601,390.329 221.434,390.349 223.286,390.349 C224.846,390.349 227.284,390.349 230.248,390.349 C229.799,390.349 229.37,390.329 228.922,390.329 C224.905,390.31 221.122,390.29 217.787,390.29 Z" style="stroke:none;fill-rule:nonzero;fill:#c0bee5;fill-opacity:1;"/>
        </g>
        <g id="Shape3">
            <desc shapeID="3" type="0" basicInfo-basicType="0" basicInfo-roundedRectRadius="12" basicInfo-polygonSides="6" basicInfo-starPoints="5" bounding="rect(-171.249,-102.044,342.498,204.087)" text="" font-familyName="" font-pixelSize="20" font-bold="0" font-underline="0" font-alignment="1" strokeStyle="0" markerStart="0" markerEnd="0" shadowEnabled="0" shadowOffsetX="0" shadowOffsetY="2" shadowBlur="4" shadowOpacity="160" blurEnabled="0" blurRadius="4" transform="matrix(1.04773,0,0,1.04773,260.158,276.677)" pers-center="0,0" pers-size="0,0" pers-start="0,0" pers-end="0,0" locked="0" mesh="" flag=""/>
            <path id="shapePath3" d="M283,383.509 C278.505,383.509 274.97,383.55 272.172,383.591 C273.54,383.591 274.787,383.591 275.89,383.591 C277.933,383.55 280.282,383.53 283,383.509 M261.078,169.764 C261.078,169.764 230.595,196.181 207.937,231.71 C203.913,228.89 199.622,226.111 195.066,223.394 C173.634,210.584 158.454,198.285 147.565,186.374 C136.062,208.929 128.503,232.711 128.503,256.226 C128.503,263.193 129.422,270.426 131.159,277.74 C110.238,273.776 93.7504,271.345 80.736,268.403 C86.9878,328.51 120.555,381.528 218.766,383.407 C222.035,383.407 225.733,383.407 229.696,383.428 C162.091,381.609 138.902,344.732 134.571,302.972 C143.683,305.035 155.226,306.731 169.855,309.51 C168.649,304.381 167.995,299.315 167.995,294.452 C167.995,277.985 173.287,261.334 181.357,245.541 C188.978,253.897 199.581,262.478 214.598,271.468 C217.785,273.368 220.788,275.309 223.608,277.27 C239.482,252.406 260.812,233.916 260.812,233.916 C260.812,233.916 281.794,252.099 297.649,276.637 C300.202,274.88 302.879,273.163 305.719,271.468 C320.735,262.499 331.318,253.918 338.939,245.561 C347.009,261.354 352.28,278.005 352.28,294.452 C352.28,299.396 351.708,304.422 350.584,309.469 C365.172,306.711 376.674,305.035 385.766,302.951 C381.394,345.018 357.939,382.1 289.313,383.469 C290.498,383.448 291.744,383.448 293.031,383.448 C295.626,383.428 298.445,383.407 301.53,383.407 C399.781,381.548 433.349,328.53 439.58,268.383 C426.607,271.345 410.181,273.756 389.341,277.699 C390.935,270.487 391.773,263.295 391.773,256.226 C391.773,232.731 384.213,208.95 372.711,186.394 C361.821,198.326 346.682,210.584 325.25,223.394 C321.185,225.825 317.344,228.298 313.707,230.79 C291.07,195.731 261.078,169.764 261.078,169.764 Z" style="stroke:none;fill-rule:nonzero;fill:#d9d6ef;fill-opacity:1;"/>
        </g>
        <g id="Shape4">
            <desc shapeID="4" type="0" basicInfo-basicType="0" basicInfo-roundedRectRadius="12" basicInfo-polygonSides="6" basicInfo-starPoints="5" bounding="rect(-20.3287,-0.0780029,40.6575,0.156006)" text="" font-familyName="" font-pixelSize="20" font-bold="0" font-underline="0" font-alignment="1" strokeStyle="0" markerStart="0" markerEnd="0" shadowEnabled="0" shadowOffsetX="0" shadowOffsetY="2" shadowBlur="4" shadowOpacity="160" blurEnabled="0" blurRadius="4" transform="matrix(1,0,0,1,250.865,390.437)" pers-center="0,0" pers-size="0,0" pers-start="0,0" pers-end="0,0" locked="0" mesh="" flag=""/>
            <path id="shapePath4" d="M230.536,390.359 C231.862,390.379 233.208,390.398 234.592,390.398 C240.93,390.398 267.898,390.515 270.55,390.515 C270.667,390.515 270.745,390.515 270.745,390.515 C270.901,390.515 271.038,390.515 271.194,390.515 C262.594,390.476 242.295,390.398 230.536,390.359 Z" style="stroke:none;fill-rule:nonzero;fill:#f2f1fa;fill-opacity:1;"/>
        </g>
        <g id="Shape5">
            <desc shapeID="5" type="0" basicInfo-basicType="0" basicInfo-roundedRectRadius="12" basicInfo-polygonSides="6" basicInfo-starPoints="5" bounding="rect(-3.22723,-0.0194702,6.45447,0.0390015)" text="" font-familyName="" font-pixelSize="20" font-bold="0" font-underline="0" font-alignment="1" strokeStyle="0" markerStart="0" markerEnd="0" shadowEnabled="0" shadowOffsetX="0" shadowOffsetY="2" shadowBlur="4" shadowOpacity="160" blurEnabled="0" blurRadius="4" transform="matrix(1,0,0,1,285.71,390.377)" pers-center="0,0" pers-size="0,0" pers-start="0,0" pers-end="0,0" locked="0" mesh="" flag=""/>
            <path id="shapePath5" d="M288.937,390.358 C286.578,390.358 284.452,390.377 282.483,390.397 C283.263,390.397 284.062,390.397 284.901,390.397 C286.266,390.397 287.592,390.377 288.937,390.358 Z" style="stroke:none;fill-rule:nonzero;fill:#f8f7fc;fill-opacity:1;"/>
        </g>
        <g id="Shape6">
            <desc shapeID="6" type="0" basicInfo-basicType="0" basicInfo-roundedRectRadius="12" basicInfo-polygonSides="6" basicInfo-starPoints="5" bounding="rect(-21.6645,-0.0877075,43.329,0.175476)" text="" font-familyName="" font-pixelSize="20" font-bold="0" font-underline="0" font-alignment="1" strokeStyle="0" markerStart="0" markerEnd="0" shadowEnabled="0" shadowOffsetX="0" shadowOffsetY="2" shadowBlur="4" shadowOpacity="160" blurEnabled="0" blurRadius="4" transform="matrix(1,0,0,1,250.865,390.407)" pers-center="0,0" pers-size="0,0" pers-start="0,0" pers-end="0,0" locked="0" mesh="" flag=""/>
            <path id="shapePath6" d="M229.201,390.319 C229.649,390.339 230.098,390.339 230.527,390.358 C242.305,390.378 262.604,390.456 271.203,390.495 C271.633,390.495 272.081,390.475 272.53,390.475 C261.922,390.436 243.923,390.358 229.201,390.319 Z" style="stroke:none;fill-rule:nonzero;fill:#f9f8fc;fill-opacity:1;"/>
        </g>
        <g id="Shape7">
            <desc shapeID="7" type="0" basicInfo-basicType="0" basicInfo-roundedRectRadius="12" basicInfo-polygonSides="6" basicInfo-starPoints="5" bounding="rect(-122.236,-72.8227,244.471,145.645)" text="" font-familyName="" font-pixelSize="20" font-bold="0" font-underline="0" font-alignment="1" strokeStyle="0" markerStart="0" markerEnd="0" shadowEnabled="0" shadowOffsetX="0" shadowOffsetY="2" shadowBlur="4" shadowOpacity="160" blurEnabled="0" blurRadius="4" transform="matrix(1.04092,0,0,1.04092,259.987,308.497)" pers-center="0,0" pers-size="0,0" pers-start="0,0" pers-end="0,0" locked="0" mesh="" flag=""/>
            <path id="shapePath7" d="M260.646,232.694 C260.646,232.694 239.029,251.429 222.953,276.619 C220.091,274.63 217.067,272.661 213.819,270.712 C198.616,261.639 187.858,252.931 180.145,244.467 C171.985,260.462 166.626,277.33 166.626,294.014 C166.626,298.947 167.276,304.082 168.514,309.258 C153.676,306.457 141.985,304.732 132.749,302.641 C137.134,344.962 160.639,382.31 229.103,384.157 C243.738,384.198 261.6,384.279 272.155,384.299 C274.977,384.259 278.569,384.238 283.116,384.218 C285.065,384.198 287.196,384.198 289.53,384.178 C359.03,382.797 382.799,345.226 387.224,302.621 C378.009,304.732 366.358,306.437 351.581,309.238 C352.717,304.123 353.306,299.028 353.306,294.014 C353.306,277.35 347.947,260.482 339.788,244.488 C332.074,252.952 321.337,261.639 306.134,270.712 C303.272,272.458 300.532,274.183 297.954,275.97 C281.898,251.125 260.646,232.694 260.646,232.694 Z" style="stroke:none;fill-rule:nonzero;fill:#fbfbfd;fill-opacity:1;"/>
        </g>
    </g>
</svg>
