<?xml version="1.0" encoding="utf-8"?>
<svg viewBox="269.081 274.154 512.799 305.751" width="512.799" height="305.751" xmlns="http://www.w3.org/2000/svg">
  <g id="Shape3" opacity="1">
    <desc shapeid="3" type="0" basicinfo-basictype="0" basicinfo-roundedrectradius="12" basicinfo-polygonsides="6" basicinfo-starpoints="5" bounding="rect(-256.399,-152.805,512.799,305.612)" text="" font-familyname="" font-pixelsize="20" font-bold="0" font-underline="0" font-alignment="1" strokestyle="0" markerstart="0" markerend="0" shadowenabled="0" shadowoffsetx="0" shadowoffsety="2" shadowblur="4" shadowopacity="160" blurenabled="0" blurradius="4" transform="matrix(1,0,0,1,525.48,426.959)" pers-center="0,0" pers-size="0,0" pers-start="0,0" pers-end="0,0" locked="0" mesh="" flag=""/>
    <path id="shapePath3" d="M558.356,579.599 C557.075,579.599 555.836,579.599 554.638,579.599 C553.336,579.641 552.013,579.641 550.69,579.641 C549.872,579.641 549.094,579.641 548.318,579.641 C545.609,579.682 543.256,579.703 541.198,579.745 C543.992,579.745 545.818,579.766 546.302,579.766 C546.385,579.766 546.427,579.766 546.427,579.766 C549.745,579.703 553.672,579.641 558.356,579.599 M526.792,274.154 C526.792,274.154 483.238,311.911 450.836,362.668 C445.082,358.658 438.97,354.689 432.461,350.783 C401.801,332.491 380.129,314.914 364.568,297.884 C348.146,330.118 337.331,364.117 337.331,397.738 C337.331,407.693 338.633,418.004 341.132,428.461 C311.249,422.812 287.665,419.327 269.081,415.105 C278.152,502.57 327.712,579.536 474.02,579.536 C476.267,579.536 479.773,579.536 484.078,579.536 C385.819,577.688 352.241,524.641 346.004,464.497 C359.023,467.458 375.509,469.895 396.424,473.842 C394.681,466.534 393.779,459.31 393.779,452.339 C393.779,428.819 401.339,405.004 412.846,382.451 C423.746,394.379 438.908,406.664 460.37,419.495 C464.927,422.203 469.211,424.975 473.221,427.81 C495.901,392.258 526.393,365.84 526.393,365.84 C526.393,365.84 556.403,391.816 579.041,426.887 C582.674,424.388 586.516,421.909 590.591,419.495 C612.031,406.685 627.172,394.4 638.071,382.471 C649.58,405.047 657.119,428.819 657.119,452.339 C657.119,459.395 656.299,466.598 654.682,473.801 C675.536,469.874 691.979,467.438 704.956,464.497 C698.719,524.641 665.141,577.688 566.86,579.536 C569.948,579.536 573.307,579.536 576.94,579.536 C723.247,579.536 772.807,502.57 781.88,415.085 C763.336,419.306 739.859,422.771 710.081,428.398 C712.349,418.108 713.545,407.819 713.545,397.738 C713.545,364.138 702.752,330.16 686.308,297.926 C670.747,314.957 649.117,332.491 618.5,350.783 C612.682,354.268 607.201,357.797 601.994,361.366 C569.654,311.26 526.792,274.154 526.792,274.154 Z" style="stroke:none;fill-rule:evenodd;fill:#b4b1df;fill-opacity:1;"/>
  </g>
  <g id="Shape4" opacity="1">
    <desc shapeid="4" type="0" basicinfo-basictype="0" basicinfo-roundedrectradius="12" basicinfo-polygonsides="6" basicinfo-starpoints="5" bounding="rect(-42.198,-0.117004,84.396,0.234009)" text="" font-familyname="" font-pixelsize="20" font-bold="0" font-underline="0" font-alignment="1" strokestyle="0" markerstart="0" markerend="0" shadowenabled="0" shadowoffsetx="0" shadowoffsety="2" shadowblur="4" shadowopacity="160" blurenabled="0" blurradius="4" transform="matrix(1,0,0,1,525.465,577.86)" pers-center="0,0" pers-size="0,0" pers-start="0,0" pers-end="0,0" locked="0" mesh="" flag=""/>
    <path id="shapePath4" d="M537.731,577.938 C537.263,577.938 536.814,577.938 536.404,577.958 C538.628,577.958 540.07,577.977 540.363,577.977 C540.402,577.977 540.422,577.977 540.441,577.977 C540.792,577.958 541.143,577.958 541.513,577.938 C540.402,577.938 539.135,577.938 537.731,577.938 M567.663,577.743 C564.543,577.763 561.657,577.782 559.005,577.802 C560.039,577.802 561.111,577.802 562.203,577.802 C564.036,577.802 565.869,577.782 567.663,577.743 M483.267,577.743 C485.081,577.782 486.914,577.802 488.766,577.802 C490.326,577.802 492.763,577.802 495.728,577.802 C495.279,577.802 494.85,577.782 494.401,577.782 C490.384,577.763 486.602,577.743 483.267,577.743 Z" style="stroke:none;fill-rule:evenodd;fill:#c0bee5;fill-opacity:1;"/>
  </g>
  <g id="Shape5" opacity="1">
    <desc shapeid="5" type="0" basicinfo-basictype="0" basicinfo-roundedrectradius="12" basicinfo-polygonsides="6" basicinfo-starpoints="5" bounding="rect(-171.249,-102.045,342.498,204.088)" text="" font-familyname="" font-pixelsize="20" font-bold="0" font-underline="0" font-alignment="1" strokestyle="0" markerstart="0" markerend="0" shadowenabled="0" shadowoffsetx="0" shadowoffsety="2" shadowblur="4" shadowopacity="160" blurenabled="0" blurradius="4" transform="matrix(1.05195,0,0,1.05195,525.755,472.56)" pers-center="0,0" pers-size="0,0" pers-start="0,0" pers-end="0,0" locked="0" mesh="" flag=""/>
    <path id="shapePath5" d="M548.689,579.823 C544.176,579.823 540.627,579.864 537.817,579.905 C539.191,579.905 540.443,579.905 541.551,579.905 C543.602,579.864 545.96,579.843 548.689,579.823 M526.679,365.214 C526.679,365.214 496.074,391.738 473.324,427.411 C469.283,424.58 464.975,421.789 460.401,419.061 C438.883,406.199 423.642,393.851 412.708,381.892 C401.159,404.538 393.569,428.415 393.569,452.026 C393.569,459.021 394.493,466.282 396.236,473.626 C375.231,469.647 358.677,467.206 345.61,464.251 C351.887,524.602 385.589,577.832 484.196,579.72 C487.478,579.72 491.192,579.72 495.171,579.741 C427.293,577.914 404.011,540.888 399.662,498.96 C408.811,501.032 420.4,502.734 435.088,505.523 C433.878,500.375 433.221,495.288 433.221,490.406 C433.221,473.872 438.534,457.155 446.637,441.298 C454.288,449.687 464.934,458.302 480.011,467.329 C483.211,469.236 486.226,471.185 489.057,473.155 C504.996,448.19 526.412,429.626 526.412,429.626 C526.412,429.626 547.478,447.883 563.396,472.518 C565.961,470.754 568.649,469.031 571.5,467.329 C586.576,458.323 597.202,449.708 604.854,441.318 C612.956,457.175 618.249,473.892 618.249,490.406 C618.249,495.37 617.674,500.416 616.546,505.482 C631.193,502.714 642.742,501.032 651.87,498.939 C647.48,541.175 623.931,578.407 555.028,579.782 C556.217,579.761 557.469,579.761 558.762,579.761 C561.366,579.741 564.197,579.72 567.295,579.72 C665.942,577.853 699.644,524.622 705.901,464.231 C692.875,467.206 676.383,469.626 655.459,473.585 C657.059,466.345 657.901,459.123 657.901,452.026 C657.901,428.435 650.311,404.558 638.762,381.913 C627.828,393.892 612.628,406.199 591.11,419.061 C587.027,421.502 583.171,423.985 579.521,426.487 C556.792,391.287 526.679,365.214 526.679,365.214 Z" style="stroke:none;fill-rule:evenodd;fill:#d9d6ef;fill-opacity:1;"/>
  </g>
  <g id="Shape6" opacity="1">
    <desc shapeid="6" type="0" basicinfo-basictype="0" basicinfo-roundedrectradius="12" basicinfo-polygonsides="6" basicinfo-starpoints="5" bounding="rect(-20.329,-0.0780028,40.658,0.156006)" text="" font-familyname="" font-pixelsize="20" font-bold="0" font-underline="0" font-alignment="1" strokestyle="0" markerstart="0" markerend="0" shadowenabled="0" shadowoffsetx="0" shadowoffsety="2" shadowblur="4" shadowopacity="160" blurenabled="0" blurradius="4" transform="matrix(1,0,0,1,516.345,577.89)" pers-center="0,0" pers-size="0,0" pers-start="0,0" pers-end="0,0" locked="0" mesh="" flag=""/>
    <path id="shapePath6" d="M496.016,577.812 C497.342,577.831 498.688,577.851 500.072,577.851 C506.41,577.851 533.378,577.968 536.03,577.968 C536.147,577.968 536.225,577.968 536.225,577.968 C536.381,577.968 536.518,577.968 536.674,577.968 C528.074,577.929 507.775,577.851 496.016,577.812 Z" style="stroke:none;fill-rule:evenodd;fill:#f2f1fa;fill-opacity:1;"/>
  </g>
  <g id="Shape7" opacity="1">
    <desc shapeid="7" type="0" basicinfo-basictype="0" basicinfo-roundedrectradius="12" basicinfo-polygonsides="6" basicinfo-starpoints="5" bounding="rect(-3.22698,-0.0194702,6.45398,0.0390015)" text="" font-familyname="" font-pixelsize="20" font-bold="0" font-underline="0" font-alignment="1" strokestyle="0" markerstart="0" markerend="0" shadowenabled="0" shadowoffsetx="0" shadowoffsety="2" shadowblur="4" shadowopacity="160" blurenabled="0" blurradius="4" transform="matrix(1,0,0,1,551.19,577.829)" pers-center="0,0" pers-size="0,0" pers-start="0,0" pers-end="0,0" locked="0" mesh="" flag=""/>
    <path id="shapePath7" d="M554.417,577.81 C552.058,577.81 549.932,577.83 547.963,577.849 C548.743,577.849 549.542,577.849 550.381,577.849 C551.746,577.849 553.072,577.83 554.417,577.81 Z" style="stroke:none;fill-rule:evenodd;fill:#f8f7fc;fill-opacity:1;"/>
  </g>
  <g id="Shape8" opacity="1">
    <desc shapeid="8" type="0" basicinfo-basictype="0" basicinfo-roundedrectradius="12" basicinfo-polygonsides="6" basicinfo-starpoints="5" bounding="rect(-21.6645,-0.0879822,43.329,0.176025)" text="" font-familyname="" font-pixelsize="20" font-bold="0" font-underline="0" font-alignment="1" strokestyle="0" markerstart="0" markerend="0" shadowenabled="0" shadowoffsetx="0" shadowoffsety="2" shadowblur="4" shadowopacity="160" blurenabled="0" blurradius="4" transform="matrix(1,0,0,1,516.346,577.86)" pers-center="0,0" pers-size="0,0" pers-start="0,0" pers-end="0,0" locked="0" mesh="" flag=""/>
    <path id="shapePath8" d="M494.681,577.772 C495.129,577.792 495.578,577.792 496.007,577.811 C507.784,577.831 528.084,577.909 536.683,577.948 C537.112,577.948 537.561,577.928 538.01,577.928 C527.401,577.889 509.403,577.811 494.681,577.772 Z" style="stroke:none;fill-rule:evenodd;fill:#f9f8fc;fill-opacity:1;"/>
  </g>
  <g id="Shape9" opacity="1">
    <desc shapeid="9" type="0" basicinfo-basictype="0" basicinfo-roundedrectradius="12" basicinfo-polygonsides="6" basicinfo-starpoints="5" bounding="rect(-122.236,-72.8232,244.472,145.646)" text="" font-familyname="" font-pixelsize="20" font-bold="0" font-underline="0" font-alignment="1" strokestyle="0" markerstart="0" markerend="0" shadowenabled="0" shadowoffsetx="0" shadowoffsety="2" shadowblur="4" shadowopacity="160" blurenabled="0" blurradius="4" transform="matrix(1.01692,0,0,1.01692,525.534,505.202)" pers-center="0,0" pers-size="0,0" pers-start="0,0" pers-end="0,0" locked="0" mesh="" flag=""/>
    <path id="shapePath9" d="M526.178,431.147 C526.178,431.147 505.058,449.45 489.353,474.059 C486.558,472.116 483.602,470.193 480.43,468.289 C465.577,459.424 455.067,450.918 447.532,442.648 C439.56,458.274 434.325,474.754 434.325,491.054 C434.325,495.872 434.96,500.889 436.169,505.946 C421.674,503.209 410.252,501.524 401.228,499.481 C405.512,540.827 428.475,577.314 495.362,579.118 C509.659,579.158 527.109,579.237 537.421,579.258 C540.178,579.218 543.687,579.198 548.129,579.178 C550.033,579.158 552.116,579.158 554.396,579.139 C622.293,577.79 645.515,541.084 649.838,499.462 C640.835,501.524 629.453,503.19 615.016,505.926 C616.127,500.929 616.701,495.951 616.701,491.054 C616.701,474.773 611.466,458.295 603.495,442.669 C595.959,450.937 585.47,459.424 570.616,468.289 C567.821,469.994 565.143,471.679 562.625,473.424 C546.939,449.152 526.178,431.147 526.178,431.147 Z" style="stroke:none;fill-rule:evenodd;fill:#fbfbfd;fill-opacity:1;"/>
  </g>
</svg>