<?xml version="1.0" standalone="no"?>
<!DOCTYPE svg PUBLIC "-//W3C//DTD SVG 20010904//EN"
 "http://www.w3.org/TR/2001/REC-SVG-20010904/DTD/svg10.dtd">
<svg version="1.0" xmlns="http://www.w3.org/2000/svg"
 width="1040.000000pt" height="1040.000000pt" viewBox="0 0 1040.000000 1040.000000"
 preserveAspectRatio="xMidYMid meet">
<metadata>
Created by potrace 1.11, written by Peter Selinger 2001-2013
</metadata>
<g transform="translate(0.000000,1040.000000) scale(0.100000,-0.100000)"
fill="#000000" stroke="none">
<path d="M5002 7635 c-468 -456 -857 -914 -1186 -1397 -59 -87 -109 -158 -111
-158 -3 0 -58 35 -122 78 -65 42 -221 141 -348 220 -313 195 -573 378 -800
565 -112 92 -335 299 -394 366 l-59 66 -61 -130 c-249 -522 -388 -963 -458
-1455 -13 -95 -17 -191 -17 -395 -1 -275 7 -362 51 -558 8 -38 13 -70 11 -72
-2 -2 -89 11 -192 31 -104 19 -355 64 -558 100 -203 36 -432 78 -509 94 -176
38 -180 38 -174 3 3 -16 14 -95 26 -178 177 -1266 802 -2172 1824 -2647 161
-75 178 -82 340 -140 494 -175 1060 -270 1680 -283 227 -4 236 -4 160 9 -44 8
-91 12 -105 9 -16 -3 -21 -1 -13 4 8 6 -13 15 -60 27 -206 51 -456 163 -608
272 -348 249 -568 627 -648 1114 -27 159 -27 170 0 170 11 0 78 -11 147 -25
293 -56 532 -98 538 -93 1 2 -5 35 -13 73 -24 103 -22 337 5 491 19 114 65
288 99 378 39 105 79 198 115 269 35 70 41 77 56 65 9 -7 70 -64 136 -126 66
-62 164 -144 217 -183 97 -70 462 -307 479 -312 5 -1 37 39 72 88 161 231 312
410 524 623 83 83 158 152 166 152 15 0 306 -291 409 -410 92 -106 204 -249
278 -356 l63 -92 176 113 c291 187 428 291 589 448 l71 70 28 -54 c107 -212
186 -451 225 -679 27 -156 29 -381 6 -485 -9 -38 -14 -71 -12 -73 4 -4 242 37
602 104 51 10 96 14 100 11 10 -11 -25 -228 -58 -353 -134 -509 -407 -854
-844 -1064 -127 -60 -253 -107 -373 -136 -50 -13 -67 -21 -55 -26 11 -4 3 -6
-22 -6 -51 1 -168 -12 -175 -19 -3 -3 103 -3 235 1 639 17 1190 110 1680 284
162 58 179 65 340 140 1020 474 1642 1374 1824 2642 28 192 29 215 11 213 -8
-2 -91 -18 -185 -37 -93 -19 -323 -62 -510 -95 -187 -33 -423 -76 -525 -94
-102 -19 -188 -32 -191 -31 -4 2 -1 32 6 66 40 190 49 295 50 543 0 264 -9
373 -51 605 -62 337 -167 676 -322 1037 -65 151 -159 343 -167 343 -3 0 -62
-56 -131 -125 -306 -305 -663 -576 -1179 -895 -110 -68 -236 -147 -280 -177
-44 -29 -85 -53 -91 -53 -6 0 -50 60 -100 133 -207 308 -487 658 -784 980
-189 206 -605 617 -624 617 -7 0 -108 -92 -224 -205z m474 -1878 c116 -118
259 -270 317 -339 158 -185 399 -498 383 -498 -2 0 -33 39 -68 88 -180 249
-413 519 -674 780 -112 111 -207 202 -211 202 -11 0 -293 -275 -392 -383 -230
-249 -485 -570 -620 -779 -24 -38 -48 -68 -53 -68 -5 0 -41 22 -81 48 -40 27
-139 91 -222 142 -192 119 -306 195 -430 289 -131 98 -345 282 -416 358 l-57
59 -47 -100 c-256 -542 -360 -1048 -311 -1506 l5 -45 -9 40 c-18 72 -23 296
-11 440 24 283 102 586 233 900 43 102 123 272 134 284 2 2 64 -54 137 -125
208 -202 448 -381 802 -599 88 -54 181 -113 206 -132 26 -18 51 -33 57 -33 6
0 48 55 94 123 202 294 455 595 755 895 l213 214 28 -20 c15 -11 122 -117 238
-235z m1983 -94 c-2 -14 -283 -273 -379 -349 -130 -103 -318 -233 -480 -333
-74 -46 -177 -111 -228 -143 -87 -57 -122 -67 -122 -36 0 10 2 11 8 0 6 -9 25
-2 73 29 35 23 116 73 179 112 329 200 613 413 818 613 109 105 133 125 131
107z m33 -75 c11 -24 15 -38 9 -33 -5 6 -17 28 -27 50 -21 52 -7 38 18 -17z
m52 -114 c3 -8 2 -12 -4 -9 -6 3 -10 10 -10 16 0 14 7 11 14 -7z m50 -111 c9
-18 14 -33 12 -33 -6 0 -36 55 -36 66 0 11 5 3 24 -33z m36 -98 c0 -5 -5 -3
-10 5 -5 8 -10 20 -10 25 0 6 5 3 10 -5 5 -8 10 -19 10 -25z m19 -45 c11 -24
11 -24 -3 -6 -9 11 -16 24 -16 30 0 12 5 7 19 -24z m-1419 -372 c15 -21 17
-28 6 -19 -16 13 -41 51 -33 51 2 0 14 -15 27 -32z m1537 -50 c-3 -8 -6 -5 -6
6 -1 11 2 17 5 13 3 -3 4 -12 1 -19z m10 -40 c-3 -8 -6 -5 -6 6 -1 11 2 17 5
13 3 -3 4 -12 1 -19z m30 -215 c-3 -10 -5 -4 -5 12 0 17 2 24 5 18 2 -7 2 -21
0 -30z m10 -80 c-3 -10 -5 -2 -5 17 0 19 2 27 5 18 2 -10 2 -26 0 -35z m10
-105 c-3 -7 -5 -2 -5 12 0 14 2 19 5 13 2 -7 2 -19 0 -25z m-10 -285 c-3 -10
-5 -2 -5 17 0 19 2 27 5 18 2 -10 2 -26 0 -35z m-5837 -107 c74 -13 191 -34
260 -47 69 -12 179 -32 245 -45 66 -12 123 -19 127 -16 4 4 0 34 -7 67 -18 72
-18 75 -5 75 6 0 10 -14 10 -31 0 -16 5 -50 11 -75 6 -25 9 -48 5 -51 -6 -6
-63 2 -281 42 -71 13 -184 33 -250 45 -66 12 -167 30 -225 42 -58 11 -136 26
-173 32 l-69 13 6 -46 c4 -25 9 -63 12 -85 4 -27 3 -36 -5 -32 -6 4 -11 28
-11 54 0 26 -4 64 -9 84 -5 20 -7 39 -4 41 2 3 54 -6 116 -19 62 -12 173 -34
247 -48z m5827 42 c-3 -7 -5 -2 -5 12 0 14 2 19 5 13 2 -7 2 -19 0 -25z m980
16 c-6 -6 -387 -79 -727 -139 -80 -14 -169 -30 -199 -35 -68 -13 -81 -12 -81
0 0 6 12 10 27 10 14 0 74 9 132 20 58 11 243 44 411 75 168 31 332 62 365 69
53 11 84 11 72 0z m-10 -46 c-3 -8 -6 -5 -6 6 -1 11 2 17 5 13 3 -3 4 -12 1
-19z m-10 -70 c-3 -7 -5 -2 -5 12 0 14 2 19 5 13 2 -7 2 -19 0 -25z m-7120
-100 c-3 -7 -5 -2 -5 12 0 14 2 19 5 13 2 -7 2 -19 0 -25z m10 -40 c-3 -8 -6
-5 -6 6 -1 11 2 17 5 13 3 -3 4 -12 1 -19z m32 -128 c0 -8 -7 8 -15 35 -7 28
-13 57 -13 65 0 8 7 -7 15 -35 7 -27 13 -57 13 -65z m7038 38 c-3 -8 -6 -5 -6
6 -1 11 2 17 5 13 3 -3 4 -12 1 -19z m-10 -50 c-3 -8 -6 -5 -6 6 -1 11 2 17 5
13 3 -3 4 -12 1 -19z m-7014 -45 c3 -21 9 -49 12 -63 3 -14 -1 -9 -8 10 -21
53 -28 90 -19 90 5 0 12 -17 15 -37z m67 -238 c0 -5 -5 -3 -10 5 -5 8 -10 20
-10 25 0 6 5 3 10 -5 5 -8 10 -19 10 -25z m20 -60 c0 -8 -2 -15 -4 -15 -2 0
-6 7 -10 15 -3 8 -1 15 4 15 6 0 10 -7 10 -15z m39 -100 c0 -5 -6 1 -14 15 -8
14 -14 30 -14 35 0 6 6 -1 14 -15 8 -14 14 -29 14 -35z m91 -199 c0 -12 -5 -7
-19 24 -11 24 -11 24 3 6 9 -11 16 -24 16 -30z m40 -71 c0 -11 -14 7 -31 40
-7 13 -3 12 10 -5 11 -14 21 -29 21 -35z m40 -66 c15 -28 5 -23 -15 7 -9 15
-12 23 -6 20 6 -4 16 -16 21 -27z m91 -136 c13 -16 12 -17 -3 -4 -17 13 -22
21 -14 21 2 0 10 -8 17 -17z m1566 -899 c-3 -3 -12 -4 -19 -1 -8 3 -5 6 6 6
11 1 17 -2 13 -5z m3070 -10 c-3 -3 -12 -4 -19 -1 -8 3 -5 6 6 6 11 1 17 -2
13 -5z m-2790 -30 c-3 -3 -12 -4 -19 -1 -8 3 -5 6 6 6 11 1 17 -2 13 -5z
m2560 0 c-3 -3 -12 -4 -19 -1 -8 3 -5 6 6 6 11 1 17 -2 13 -5z"/>
</g>
</svg>
