<?xml version="1.0"?>
<svg version="1.1" xmlns="http://www.w3.org/2000/svg" xmlns:xlink="http://www.w3.org/1999/xlink" width="1024" height="1024">
    <desc iVinci="yes" version="4.6" gridStep="20" showGrid="no" snapToGrid="no" codePlatform="0"/>
    <g id="Layer1" name="Layer 1" opacity="1">
        <g id="Shape1">
            <desc shapeID="1" type="0" basicInfo-basicType="0" basicInfo-roundedRectRadius="12" basicInfo-polygonSides="6" basicInfo-starPoints="5" bounding="rect(-50,-50,100,100)" text="" font-familyName="" font-pixelSize="20" font-bold="0" font-underline="0" font-alignment="1" strokeStyle="0" markerStart="0" markerEnd="0" shadowEnabled="0" shadowOffsetX="0" shadowOffsetY="2" shadowBlur="4" shadowOpacity="160" blurEnabled="0" blurRadius="4" transform="matrix(1,0,0,1,50,50)" pers-center="0,0" pers-size="0,0" pers-start="0,0" pers-end="0,0" locked="0" mesh="" flag=""/>
            <path id="shapePath1" d="M0,0 L100,0 L100,100 L0,100 L0,0 Z" style="stroke:none;fill-rule:evenodd;fill:#ffffff;fill-opacity:1;"/>
        </g>
        <g id="Shape2">
            <desc shapeID="2" type="0" basicInfo-basicType="0" basicInfo-roundedRectRadius="12" basicInfo-polygonSides="6" basicInfo-starPoints="5" bounding="rect(-511.5,-546,1023,1092)" text="" font-familyName="" font-pixelSize="20" font-bold="0" font-underline="0" font-alignment="1" strokeStyle="0" markerStart="0" markerEnd="0" shadowEnabled="0" shadowOffsetX="0" shadowOffsetY="2" shadowBlur="4" shadowOpacity="160" blurEnabled="0" blurRadius="4" transform="matrix(1,0,0,1,512,512)" pers-center="0,0" pers-size="0,0" pers-start="0,0" pers-end="0,0" locked="0" mesh="" flag=""/>
            <path id="shapePath2" d="M0.5,-34 L1023.5,-34 L1023.5,1058 L0.5,1058 L0.5,-34 Z" style="stroke:none;fill-rule:evenodd;fill:#f7f7f7;fill-opacity:1;"/>
        </g>
        <g id="Shape3">
            <desc shapeID="3" type="0" basicInfo-basicType="0" basicInfo-roundedRectRadius="12" basicInfo-polygonSides="6" basicInfo-starPoints="5" bounding="rect(-256.399,-152.805,512.799,305.612)" text="" font-familyName="" font-pixelSize="20" font-bold="0" font-underline="0" font-alignment="1" strokeStyle="0" markerStart="0" markerEnd="0" shadowEnabled="0" shadowOffsetX="0" shadowOffsetY="2" shadowBlur="4" shadowOpacity="160" blurEnabled="0" blurRadius="4" transform="matrix(1,0,0,1,525.48,426.959)" pers-center="0,0" pers-size="0,0" pers-start="0,0" pers-end="0,0" locked="0" mesh="" flag=""/>
            <path id="shapePath3" d="M558.356,579.599 C557.075,579.599 555.836,579.599 554.638,579.599 C553.336,579.641 552.013,579.641 550.69,579.641 C549.872,579.641 549.094,579.641 548.318,579.641 C545.609,579.682 543.256,579.703 541.198,579.745 C543.992,579.745 545.818,579.766 546.302,579.766 C546.385,579.766 546.427,579.766 546.427,579.766 C549.745,579.703 553.672,579.641 558.356,579.599 M526.792,274.154 C526.792,274.154 483.238,311.911 450.836,362.668 C445.082,358.658 438.97,354.689 432.461,350.783 C401.801,332.491 380.129,314.914 364.568,297.884 C348.146,330.118 337.331,364.117 337.331,397.738 C337.331,407.693 338.633,418.004 341.132,428.461 C311.249,422.812 287.665,419.327 269.081,415.105 C278.152,502.57 327.712,579.536 474.02,579.536 C476.267,579.536 479.773,579.536 484.078,579.536 C385.819,577.688 352.241,524.641 346.004,464.497 C359.023,467.458 375.509,469.895 396.424,473.842 C394.681,466.534 393.779,459.31 393.779,452.339 C393.779,428.819 401.339,405.004 412.846,382.451 C423.746,394.379 438.908,406.664 460.37,419.495 C464.927,422.203 469.211,424.975 473.221,427.81 C495.901,392.258 526.393,365.84 526.393,365.84 C526.393,365.84 556.403,391.816 579.041,426.887 C582.674,424.388 586.516,421.909 590.591,419.495 C612.031,406.685 627.172,394.4 638.071,382.471 C649.58,405.047 657.119,428.819 657.119,452.339 C657.119,459.395 656.299,466.598 654.682,473.801 C675.536,469.874 691.979,467.438 704.956,464.497 C698.719,524.641 665.141,577.688 566.86,579.536 C569.948,579.536 573.307,579.536 576.94,579.536 C723.247,579.536 772.807,502.57 781.88,415.085 C763.336,419.306 739.859,422.771 710.081,428.398 C712.349,418.108 713.545,407.819 713.545,397.738 C713.545,364.138 702.752,330.16 686.308,297.926 C670.747,314.957 649.117,332.491 618.5,350.783 C612.682,354.268 607.201,357.797 601.994,361.366 C569.654,311.26 526.792,274.154 526.792,274.154 Z" style="stroke:none;fill-rule:evenodd;fill:#b4b1df;fill-opacity:1;"/>
        </g>
        <g id="Shape4">
            <desc shapeID="4" type="0" basicInfo-basicType="0" basicInfo-roundedRectRadius="12" basicInfo-polygonSides="6" basicInfo-starPoints="5" bounding="rect(-42.198,-0.117004,84.396,0.234009)" text="" font-familyName="" font-pixelSize="20" font-bold="0" font-underline="0" font-alignment="1" strokeStyle="0" markerStart="0" markerEnd="0" shadowEnabled="0" shadowOffsetX="0" shadowOffsetY="2" shadowBlur="4" shadowOpacity="160" blurEnabled="0" blurRadius="4" transform="matrix(1,0,0,1,525.465,577.86)" pers-center="0,0" pers-size="0,0" pers-start="0,0" pers-end="0,0" locked="0" mesh="" flag=""/>
            <path id="shapePath4" d="M537.731,577.938 C537.263,577.938 536.814,577.938 536.404,577.958 C538.628,577.958 540.07,577.977 540.363,577.977 C540.402,577.977 540.422,577.977 540.441,577.977 C540.792,577.958 541.143,577.958 541.513,577.938 C540.402,577.938 539.135,577.938 537.731,577.938 M567.663,577.743 C564.543,577.763 561.657,577.782 559.005,577.802 C560.039,577.802 561.111,577.802 562.203,577.802 C564.036,577.802 565.869,577.782 567.663,577.743 M483.267,577.743 C485.081,577.782 486.914,577.802 488.766,577.802 C490.326,577.802 492.763,577.802 495.728,577.802 C495.279,577.802 494.85,577.782 494.401,577.782 C490.384,577.763 486.602,577.743 483.267,577.743 Z" style="stroke:none;fill-rule:evenodd;fill:#c0bee5;fill-opacity:1;"/>
        </g>
        <g id="Shape5">
            <desc shapeID="5" type="0" basicInfo-basicType="0" basicInfo-roundedRectRadius="12" basicInfo-polygonSides="6" basicInfo-starPoints="5" bounding="rect(-171.249,-102.045,342.498,204.088)" text="" font-familyName="" font-pixelSize="20" font-bold="0" font-underline="0" font-alignment="1" strokeStyle="0" markerStart="0" markerEnd="0" shadowEnabled="0" shadowOffsetX="0" shadowOffsetY="2" shadowBlur="4" shadowOpacity="160" blurEnabled="0" blurRadius="4" transform="matrix(1.05195,0,0,1.05195,525.755,472.56)" pers-center="0,0" pers-size="0,0" pers-start="0,0" pers-end="0,0" locked="0" mesh="" flag=""/>
            <path id="shapePath5" d="M548.689,579.823 C544.176,579.823 540.627,579.864 537.817,579.905 C539.191,579.905 540.443,579.905 541.551,579.905 C543.602,579.864 545.96,579.843 548.689,579.823 M526.679,365.214 C526.679,365.214 496.074,391.738 473.324,427.411 C469.283,424.58 464.975,421.789 460.401,419.061 C438.883,406.199 423.642,393.851 412.708,381.892 C401.159,404.538 393.569,428.415 393.569,452.026 C393.569,459.021 394.493,466.282 396.236,473.626 C375.231,469.647 358.677,467.206 345.61,464.251 C351.887,524.602 385.589,577.832 484.196,579.72 C487.478,579.72 491.192,579.72 495.171,579.741 C427.293,577.914 404.011,540.888 399.662,498.96 C408.811,501.032 420.4,502.734 435.088,505.523 C433.878,500.375 433.221,495.288 433.221,490.406 C433.221,473.872 438.534,457.155 446.637,441.298 C454.288,449.687 464.934,458.302 480.011,467.329 C483.211,469.236 486.226,471.185 489.057,473.155 C504.996,448.19 526.412,429.626 526.412,429.626 C526.412,429.626 547.478,447.883 563.396,472.518 C565.961,470.754 568.649,469.031 571.5,467.329 C586.576,458.323 597.202,449.708 604.854,441.318 C612.956,457.175 618.249,473.892 618.249,490.406 C618.249,495.37 617.674,500.416 616.546,505.482 C631.193,502.714 642.742,501.032 651.87,498.939 C647.48,541.175 623.931,578.407 555.028,579.782 C556.217,579.761 557.469,579.761 558.762,579.761 C561.366,579.741 564.197,579.72 567.295,579.72 C665.942,577.853 699.644,524.622 705.901,464.231 C692.875,467.206 676.383,469.626 655.459,473.585 C657.059,466.345 657.901,459.123 657.901,452.026 C657.901,428.435 650.311,404.558 638.762,381.913 C627.828,393.892 612.628,406.199 591.11,419.061 C587.027,421.502 583.171,423.985 579.521,426.487 C556.792,391.287 526.679,365.214 526.679,365.214 Z" style="stroke:none;fill-rule:evenodd;fill:#d9d6ef;fill-opacity:1;"/>
        </g>
        <g id="Shape6">
            <desc shapeID="6" type="0" basicInfo-basicType="0" basicInfo-roundedRectRadius="12" basicInfo-polygonSides="6" basicInfo-starPoints="5" bounding="rect(-20.329,-0.0780028,40.658,0.156006)" text="" font-familyName="" font-pixelSize="20" font-bold="0" font-underline="0" font-alignment="1" strokeStyle="0" markerStart="0" markerEnd="0" shadowEnabled="0" shadowOffsetX="0" shadowOffsetY="2" shadowBlur="4" shadowOpacity="160" blurEnabled="0" blurRadius="4" transform="matrix(1,0,0,1,516.345,577.89)" pers-center="0,0" pers-size="0,0" pers-start="0,0" pers-end="0,0" locked="0" mesh="" flag=""/>
            <path id="shapePath6" d="M496.016,577.812 C497.342,577.831 498.688,577.851 500.072,577.851 C506.41,577.851 533.378,577.968 536.03,577.968 C536.147,577.968 536.225,577.968 536.225,577.968 C536.381,577.968 536.518,577.968 536.674,577.968 C528.074,577.929 507.775,577.851 496.016,577.812 Z" style="stroke:none;fill-rule:evenodd;fill:#f2f1fa;fill-opacity:1;"/>
        </g>
        <g id="Shape7">
            <desc shapeID="7" type="0" basicInfo-basicType="0" basicInfo-roundedRectRadius="12" basicInfo-polygonSides="6" basicInfo-starPoints="5" bounding="rect(-3.22698,-0.0194702,6.45398,0.0390015)" text="" font-familyName="" font-pixelSize="20" font-bold="0" font-underline="0" font-alignment="1" strokeStyle="0" markerStart="0" markerEnd="0" shadowEnabled="0" shadowOffsetX="0" shadowOffsetY="2" shadowBlur="4" shadowOpacity="160" blurEnabled="0" blurRadius="4" transform="matrix(1,0,0,1,551.19,577.829)" pers-center="0,0" pers-size="0,0" pers-start="0,0" pers-end="0,0" locked="0" mesh="" flag=""/>
            <path id="shapePath7" d="M554.417,577.81 C552.058,577.81 549.932,577.83 547.963,577.849 C548.743,577.849 549.542,577.849 550.381,577.849 C551.746,577.849 553.072,577.83 554.417,577.81 Z" style="stroke:none;fill-rule:evenodd;fill:#f8f7fc;fill-opacity:1;"/>
        </g>
        <g id="Shape8">
            <desc shapeID="8" type="0" basicInfo-basicType="0" basicInfo-roundedRectRadius="12" basicInfo-polygonSides="6" basicInfo-starPoints="5" bounding="rect(-21.6645,-0.0879822,43.329,0.176025)" text="" font-familyName="" font-pixelSize="20" font-bold="0" font-underline="0" font-alignment="1" strokeStyle="0" markerStart="0" markerEnd="0" shadowEnabled="0" shadowOffsetX="0" shadowOffsetY="2" shadowBlur="4" shadowOpacity="160" blurEnabled="0" blurRadius="4" transform="matrix(1,0,0,1,516.346,577.86)" pers-center="0,0" pers-size="0,0" pers-start="0,0" pers-end="0,0" locked="0" mesh="" flag=""/>
            <path id="shapePath8" d="M494.681,577.772 C495.129,577.792 495.578,577.792 496.007,577.811 C507.784,577.831 528.084,577.909 536.683,577.948 C537.112,577.948 537.561,577.928 538.01,577.928 C527.401,577.889 509.403,577.811 494.681,577.772 Z" style="stroke:none;fill-rule:evenodd;fill:#f9f8fc;fill-opacity:1;"/>
        </g>
        <g id="Shape9">
            <desc shapeID="9" type="0" basicInfo-basicType="0" basicInfo-roundedRectRadius="12" basicInfo-polygonSides="6" basicInfo-starPoints="5" bounding="rect(-122.236,-72.8232,244.472,145.646)" text="" font-familyName="" font-pixelSize="20" font-bold="0" font-underline="0" font-alignment="1" strokeStyle="0" markerStart="0" markerEnd="0" shadowEnabled="0" shadowOffsetX="0" shadowOffsetY="2" shadowBlur="4" shadowOpacity="160" blurEnabled="0" blurRadius="4" transform="matrix(1.01692,0,0,1.01692,525.534,505.202)" pers-center="0,0" pers-size="0,0" pers-start="0,0" pers-end="0,0" locked="0" mesh="" flag=""/>
            <path id="shapePath9" d="M526.178,431.147 C526.178,431.147 505.058,449.45 489.353,474.059 C486.558,472.116 483.602,470.193 480.43,468.289 C465.577,459.424 455.067,450.918 447.532,442.648 C439.56,458.274 434.325,474.754 434.325,491.054 C434.325,495.872 434.96,500.889 436.169,505.946 C421.674,503.209 410.252,501.524 401.228,499.481 C405.512,540.827 428.475,577.314 495.362,579.118 C509.659,579.158 527.109,579.237 537.421,579.258 C540.178,579.218 543.687,579.198 548.129,579.178 C550.033,579.158 552.116,579.158 554.396,579.139 C622.293,577.79 645.515,541.084 649.838,499.462 C640.835,501.524 629.453,503.19 615.016,505.926 C616.127,500.929 616.701,495.951 616.701,491.054 C616.701,474.773 611.466,458.295 603.495,442.669 C595.959,450.937 585.47,459.424 570.616,468.289 C567.821,469.994 565.143,471.679 562.625,473.424 C546.939,449.152 526.178,431.147 526.178,431.147 Z" style="stroke:none;fill-rule:evenodd;fill:#fbfbfd;fill-opacity:1;"/>
        </g>
        <g id="Shape10">
            <desc shapeID="10" type="0" basicInfo-basicType="0" basicInfo-roundedRectRadius="12" basicInfo-polygonSides="6" basicInfo-starPoints="5" bounding="rect(-396.72,-40.1925,793.44,80.385)" text="" font-familyName="" font-pixelSize="20" font-bold="0" font-underline="0" font-alignment="1" strokeStyle="0" markerStart="0" markerEnd="0" shadowEnabled="0" shadowOffsetX="0" shadowOffsetY="2" shadowBlur="4" shadowOpacity="160" blurEnabled="0" blurRadius="4" transform="matrix(1,0,0,1,512,682.932)" pers-center="0,0" pers-size="0,0" pers-start="0,0" pers-end="0,0" locked="0" mesh="" flag=""/>
            <path id="shapePath10" d="M115.28,702.695 L115.28,721.4 L120.515,721.4 L120.515,714.56 C122.555,717.75 125.025,719.995 127.925,721.295 C130.665,722.515 133.745,723.125 137.165,723.125 C143.325,723.125 148.295,721.64 152.075,718.67 C155.755,715.85 157.595,711.935 157.595,706.925 C157.595,702.585 156.33,699.21 153.8,696.8 C151.36,694.46 146.11,692.51 138.05,690.95 C132.34,689.87 128.52,688.7 126.59,687.44 C124.62,686.07 123.615,683.9 123.575,680.93 C123.575,678.11 124.655,675.755 126.815,673.865 C128.925,671.895 131.76,670.91 135.32,670.91 C139.52,670.91 143.03,672.19 145.85,674.75 C148.67,677.28 150.115,680.51 150.185,684.44 L155.195,684.44 L155.195,669.08 L150.185,669.08 L150.185,673.31 C148.295,670.78 146.09,668.905 143.57,667.685 C141.19,666.575 138.5,666.02 135.5,666.02 C135.38,666.02 135.285,666.02 135.215,666.02 C130.425,666.02 126.4,667.38 123.14,670.1 C119.87,672.83 118.235,676.515 118.235,681.155 C118.235,685.865 119.72,689.28 122.69,691.4 C125.51,693.51 130.185,695.14 136.715,696.29 C142.725,697.3 146.825,698.64 149.015,700.31 C151.205,701.83 152.3,704.22 152.3,707.48 C152.3,710.6 150.87,713.275 148.01,715.505 C145.12,717.545 141.69,718.565 137.72,718.565 C132.56,718.565 128.42,717.155 125.3,714.335 C122.19,711.515 120.595,707.635 120.515,702.695 L115.28,702.695 M165.155,706.265 C165.155,710.605 166.755,714.35 169.955,717.5 C173.065,720.62 177.07,722.18 181.97,722.18 C184.94,722.18 188.245,721.42 191.885,719.9 C195.295,718.45 198.485,716.41 201.455,713.78 L201.455,721.4 L216.38,721.4 L216.38,716.285 L207.35,716.285 L207.35,681.26 C207.35,676.11 205.645,672.28 202.235,669.77 C198.825,667.27 193.85,666.02 187.31,666.02 C185.87,666.02 184.33,666.185 182.69,666.515 C181.06,666.845 179.56,667.245 178.19,667.715 C176.82,668.175 175.705,668.575 174.845,668.915 L173.51,669.41 L175.01,672.965 C175.01,672.965 175.44,672.82 176.3,672.53 C177.11,672.27 178.12,671.97 179.33,671.63 C180.53,671.3 181.84,670.975 183.26,670.655 C184.67,670.345 185.95,670.19 187.1,670.19 C191.44,670.19 194.925,671.08 197.555,672.86 C200.155,674.53 201.455,677.33 201.455,681.26 L201.455,694.01 C198.565,692.42 195.71,691.29 192.89,690.62 C189.99,689.95 187.485,689.615 185.375,689.615 C179.285,689.615 174.385,691.21 170.675,694.4 C167.035,697.52 165.195,701.475 165.155,706.265 M171.23,706.7 C171.23,703.14 172.555,700.135 175.205,697.685 C177.865,695.235 181.585,694.01 186.365,694.01 C189.045,694.01 191.72,694.475 194.39,695.405 C196.84,696.255 199.195,697.385 201.455,698.795 L201.455,708.77 C199.265,711.29 196.445,713.405 192.995,715.115 C189.725,716.785 186.495,717.62 183.305,717.62 C179.595,717.62 176.625,716.525 174.395,714.335 C172.285,712.215 171.23,709.67 171.23,706.7 M218.045,694.52 C218.045,702.79 220.51,709.615 225.44,714.995 C230.31,720.305 236.73,722.98 244.7,723.02 C250.08,723.02 254.795,721.61 258.845,718.79 C262.965,715.97 266.045,711.98 268.085,706.82 L263.3,704.75 C261.7,708.54 259.345,711.66 256.235,714.11 C253.185,716.45 249.38,717.62 244.82,717.62 C238.58,717.62 233.57,715.495 229.79,711.245 C226,706.995 224.105,701.42 224.105,694.52 C224.105,687.61 225.96,682.025 229.67,677.765 C233.31,673.495 238.1,671.36 244.04,671.36 C248.31,671.36 252.225,672.73 255.785,675.47 C259.195,678.07 261.015,682.245 261.245,687.995 L266.135,687.995 L266.135,670.91 L261.245,670.91 L261.245,674.75 C259.425,671.93 257.03,669.78 254.06,668.3 C251.16,666.78 247.82,666.02 244.04,666.02 C236.51,666.02 230.31,668.745 225.44,674.195 C220.51,679.765 218.045,686.54 218.045,694.52 M273.98,667.46 L273.98,672.59 L284.225,672.59 L284.225,716.285 L284.225,721.4 L301.265,721.4 L301.265,716.285 L290.18,716.285 L290.18,692.12 C290.18,685.07 292.045,679.905 295.775,676.625 C299.505,673.335 305.23,671.69 312.95,671.69 L315.125,671.69 L315.125,666.02 L312.95,665.9 C312.54,665.86 312.115,665.84 311.675,665.84 C310.785,665.84 309.895,665.9 309.005,666.02 C307.595,666.16 306.19,666.36 304.79,666.62 C303.4,666.88 302.065,667.245 300.785,667.715 C299.505,668.175 298.365,668.665 297.365,669.185 C296.065,669.855 294.85,670.84 293.72,672.14 C292.59,673.44 291.735,674.545 291.155,675.455 C290.585,676.365 290.26,676.89 290.18,677.03 L290.18,667.46 L273.98,667.46 M315.005,694.52 C315.005,702.79 317.625,709.58 322.865,714.89 C328.095,720.27 334.755,722.98 342.845,723.02 C344.285,723.02 345.915,722.805 347.735,722.375 C349.555,721.945 351.265,721.49 352.865,721.01 C354.455,720.53 355.79,720.065 356.87,719.615 L358.535,719 L357.2,714.665 C357.2,714.665 356.7,714.87 355.7,715.28 C354.7,715.65 353.52,716.04 352.16,716.45 C350.81,716.86 349.355,717.26 347.795,717.65 C346.235,718.03 344.88,718.22 343.73,718.22 C337.05,718.22 331.575,715.975 327.305,711.485 C323.375,707.375 321.205,702.125 320.795,695.735 L369.5,695.735 C369.06,686.315 366.41,679.025 361.55,673.865 C356.61,668.635 350.245,666.02 342.455,666.02 C334.475,666.02 327.905,668.71 322.745,674.09 C317.585,679.47 315.005,686.28 315.005,694.52 M363.215,690.62 L321.02,690.62 C321.87,685.24 323.78,680.955 326.75,677.765 C330.8,673.275 335.885,671.03 342.005,671.03 C347.865,671.03 352.69,672.845 356.48,676.475 C360.23,680.185 362.475,684.9 363.215,690.62 M377.465,694.52 C377.465,702.42 380.005,709.025 385.085,714.335 C390.175,719.565 396.525,722.18 404.135,722.18 C407.985,722.18 411.75,721.31 415.43,719.57 C418.92,717.9 422.11,714.93 425,710.66 L425,721.4 L440.705,721.4 L440.705,716.285 L430.895,716.285 L430.895,643.97 L425,643.97 L425,649.145 L425,678.65 C422.11,673.94 418.845,670.635 415.205,668.735 C411.415,666.925 407.61,666.02 403.79,666.02 C396.19,666.02 389.885,668.71 384.875,674.09 C379.935,679.47 377.465,686.28 377.465,694.52 M383.03,694.52 C383.03,687.91 385.055,682.285 389.105,677.645 C392.955,673.155 397.89,670.91 403.91,670.91 C409.84,670.91 414.855,673.155 418.955,677.645 C423.065,682.135 425.12,687.645 425.12,694.175 C425.12,700.855 423.13,706.405 419.15,710.825 C415.33,715.125 410.38,717.275 404.3,717.275 C404.26,717.275 404.205,717.275 404.135,717.275 C398.195,717.275 393.185,715.07 389.105,710.66 C385.055,706.17 383.03,700.79 383.03,694.52 M469.865,667.46 L469.865,672.59 L479.435,672.59 L479.435,712.49 C479.435,715.91 480.235,718.465 481.835,720.155 C483.435,721.835 485.865,722.675 489.125,722.675 L496.64,721.4 L496.64,716.285 L490.295,717.275 C488.555,717.275 487.295,716.83 486.515,715.94 C485.765,715.09 485.39,713.57 485.39,711.38 L485.39,672.59 L496.64,672.59 L496.64,667.46 L485.39,667.46 L485.39,655.265 L479.435,655.385 L479.435,667.46 L469.865,667.46 M504.26,667.46 L504.26,672.59 L514.505,672.59 L514.505,716.285 L514.505,721.4 L531.545,721.4 L531.545,716.285 L520.46,716.285 L520.46,692.12 C520.46,685.07 522.325,679.905 526.055,676.625 C529.785,673.335 535.51,671.69 543.23,671.69 L545.405,671.69 L545.405,666.02 L543.23,665.9 C542.82,665.86 542.395,665.84 541.955,665.84 C541.065,665.84 540.175,665.9 539.285,666.02 C537.875,666.16 536.47,666.36 535.07,666.62 C533.68,666.88 532.345,667.245 531.065,667.715 C529.785,668.175 528.645,668.665 527.645,669.185 C526.345,669.855 525.13,670.84 524,672.14 C522.87,673.44 522.015,674.545 521.435,675.455 C520.865,676.365 520.54,676.89 520.46,677.03 L520.46,667.46 L504.26,667.46 M543.68,706.265 C543.68,710.605 545.275,714.35 548.465,717.5 C551.585,720.62 555.595,722.18 560.495,722.18 C563.455,722.18 566.755,721.42 570.395,719.9 C573.805,718.45 576.995,716.41 579.965,713.78 L579.965,721.4 L594.89,721.4 L594.89,716.285 L585.875,716.285 L585.875,681.26 C585.875,676.11 584.165,672.28 580.745,669.77 C577.335,667.27 572.365,666.02 565.835,666.02 C564.385,666.02 562.845,666.185 561.215,666.515 C559.575,666.845 558.07,667.245 556.7,667.715 C555.33,668.175 554.22,668.575 553.37,668.915 L552.02,669.41 L553.535,672.965 C553.535,672.965 553.96,672.82 554.81,672.53 C555.63,672.27 556.64,671.97 557.84,671.63 C559.05,671.3 560.36,670.975 561.77,670.655 C563.18,670.345 564.46,670.19 565.61,670.19 C569.95,670.19 573.44,671.08 576.08,672.86 C578.67,674.53 579.965,677.33 579.965,681.26 L579.965,694.01 C577.075,692.42 574.22,691.29 571.4,690.62 C568.5,689.95 565.995,689.615 563.885,689.615 C557.795,689.615 552.895,691.21 549.185,694.4 C545.555,697.52 543.72,701.475 543.68,706.265 M549.74,706.7 C549.74,703.14 551.07,700.135 553.73,697.685 C556.38,695.235 560.1,694.01 564.89,694.01 C567.56,694.01 570.23,694.475 572.9,695.405 C575.35,696.255 577.705,697.385 579.965,698.795 L579.965,708.77 C577.775,711.29 574.955,713.405 571.505,715.115 C568.245,716.785 565.02,717.62 561.83,717.62 C558.12,717.62 555.15,716.525 552.92,714.335 C550.8,712.215 549.74,709.67 549.74,706.7 M596,694.52 C596,702.42 598.545,709.025 603.635,714.335 C608.715,719.565 615.06,722.18 622.67,722.18 C626.53,722.18 630.295,721.31 633.965,719.57 C637.455,717.9 640.645,714.93 643.535,710.66 L643.535,721.4 L659.24,721.4 L659.24,716.285 L649.445,716.285 L649.445,643.97 L643.535,643.97 L643.535,649.145 L643.535,678.65 C640.645,673.94 637.38,670.635 633.74,668.735 C629.96,666.925 626.155,666.02 622.325,666.02 C614.725,666.02 608.42,668.71 603.41,674.09 C598.47,679.47 596,686.28 596,694.52 M601.565,694.52 C601.565,687.91 603.59,682.285 607.64,677.645 C611.5,673.155 616.435,670.91 622.445,670.91 C628.385,670.91 633.405,673.155 637.505,677.645 C641.605,682.135 643.655,687.645 643.655,694.175 C643.655,700.855 641.67,706.405 637.7,710.825 C633.87,715.125 628.915,717.275 622.835,717.275 C622.795,717.275 622.74,717.275 622.67,717.275 C616.73,717.275 611.72,715.07 607.64,710.66 C603.59,706.17 601.565,700.79 601.565,694.52 M659.12,667.46 L659.12,672.59 L668.585,672.59 L668.585,716.285 L668.705,716.285 L668.705,721.4 L683.78,721.4 L683.78,716.285 L674.54,716.285 L674.54,667.46 L659.12,667.46 M665.42,647.42 C665.42,648.65 665.875,649.72 666.785,650.63 C667.685,651.53 668.75,651.98 669.98,651.98 C671.2,651.98 672.265,651.53 673.175,650.63 C674.085,649.72 674.54,648.615 674.54,647.315 C674.54,646.085 674.075,645.015 673.145,644.105 C672.225,643.195 671.17,642.74 669.98,642.74 C668.75,642.74 667.685,643.195 666.785,644.105 C665.875,645.015 665.42,646.12 665.42,647.42 M685.235,667.46 L685.235,672.59 L694.805,672.59 L694.805,712.49 C694.805,715.91 695.605,718.465 697.205,720.155 C698.795,721.835 701.225,722.675 704.495,722.675 L712.01,721.4 L712.01,716.285 L705.665,717.275 C703.915,717.275 702.65,716.83 701.87,715.94 C701.13,715.09 700.76,713.57 700.76,711.38 L700.76,672.59 L712.01,672.59 L712.01,667.46 L700.76,667.46 L700.76,655.265 L694.805,655.385 L694.805,667.46 L685.235,667.46 M717.245,667.46 L717.245,672.59 L726.695,672.59 L726.695,716.285 L726.815,716.285 L726.815,721.4 L741.89,721.4 L741.89,716.285 L732.65,716.285 L732.65,667.46 L717.245,667.46 M723.53,647.42 C723.53,648.65 723.985,649.72 724.895,650.63 C725.805,651.53 726.87,651.98 728.09,651.98 C729.32,651.98 730.39,651.53 731.3,650.63 C732.2,649.72 732.65,648.615 732.65,647.315 C732.65,646.085 732.19,645.015 731.27,644.105 C730.34,643.195 729.28,642.74 728.09,642.74 C726.87,642.74 725.805,643.195 724.895,644.105 C723.985,645.015 723.53,646.12 723.53,647.42 M743.345,694.52 C743.345,702.49 745.925,709.24 751.085,714.77 C756.165,720.23 762.545,722.98 770.225,723.02 C777.835,723.02 784.255,720.27 789.485,714.77 C794.605,709.24 797.165,702.49 797.165,694.52 C797.165,686.54 794.57,679.765 789.38,674.195 C784.22,668.745 777.835,666.02 770.225,666.02 C762.475,666.02 756.055,668.745 750.965,674.195 C745.885,679.575 743.345,686.35 743.345,694.52 M749.405,694.52 C749.405,687.84 751.375,682.29 755.315,677.87 C759.175,673.53 764.145,671.36 770.225,671.36 C776.315,671.36 781.345,673.565 785.315,677.975 C789.175,682.325 791.105,687.84 791.105,694.52 C791.105,701.2 789.14,706.745 785.21,711.155 C781.38,715.465 776.44,717.62 770.39,717.62 C770.36,717.62 770.305,717.62 770.225,717.62 C764.145,717.62 759.135,715.43 755.195,711.05 C751.335,706.71 749.405,701.2 749.405,694.52 M798.785,667.46 L798.785,672.59 L808.64,672.59 L808.64,716.285 L808.64,721.4 L823.34,721.4 L823.34,716.285 L814.535,716.285 L814.535,680.705 C817.205,678.185 820.4,675.98 824.12,674.09 C827.75,672.27 831.16,671.36 834.35,671.36 C837.32,671.36 839.605,672.195 841.205,673.865 C842.795,675.455 843.59,677.775 843.59,680.825 L843.59,716.285 L843.59,721.4 L858.065,721.4 L858.065,716.285 L849.545,716.285 L849.545,680.15 C849.545,675.88 848.21,672.41 845.54,669.74 C842.91,667.26 839.515,666.02 835.355,666.02 C835.285,666.02 835.23,666.02 835.19,666.02 C831.48,666.02 827.87,666.815 824.36,668.405 C820.86,670.005 817.585,672.12 814.535,674.75 L814.535,667.46 L798.785,667.46 M866.42,702.695 L866.42,721.4 L871.655,721.4 L871.655,714.56 C873.695,717.75 876.16,719.995 879.05,721.295 C881.8,722.515 884.88,723.125 888.29,723.125 C894.45,723.125 899.425,721.64 903.215,718.67 C906.885,715.85 908.72,711.935 908.72,706.925 C908.72,702.585 907.46,699.21 904.94,696.8 C902.49,694.46 897.24,692.51 889.19,690.95 C883.47,689.87 879.645,688.7 877.715,687.44 C875.745,686.07 874.745,683.9 874.715,680.93 C874.715,678.11 875.79,675.755 877.94,673.865 C880.06,671.895 882.9,670.91 886.46,670.91 C890.65,670.91 894.155,672.19 896.975,674.75 C899.795,677.28 901.245,680.51 901.325,684.44 L906.335,684.44 L906.335,669.08 L901.325,669.08 L901.325,673.31 C899.425,670.78 897.215,668.905 894.695,667.685 C892.325,666.575 889.635,666.02 886.625,666.02 C886.515,666.02 886.42,666.02 886.34,666.02 C881.56,666.02 877.535,667.38 874.265,670.1 C871.005,672.83 869.375,676.515 869.375,681.155 C869.375,685.865 870.855,689.28 873.815,691.4 C876.635,693.51 881.315,695.14 887.855,696.29 C893.865,697.3 897.965,698.64 900.155,700.31 C902.345,701.83 903.44,704.22 903.44,707.48 C903.44,710.6 902.01,713.275 899.15,715.505 C896.25,717.545 892.815,718.565 888.845,718.565 C883.695,718.565 879.56,717.155 876.44,714.335 C873.32,711.515 871.725,707.635 871.655,702.695 L866.42,702.695 Z" style="stroke:none;fill-rule:evenodd;fill:#9c9cd4;fill-opacity:1;"/>
        </g>
    </g>
</svg>
